# xmcd
#
# Track frame offsets:
#	155
#	11483
#	27676
#	49742
#	62830
#	77449
#	89406
#	103351
#	119464
#	130720
#	147830
#	162186
#	176536
#	191297
#	201427
#	213303
#	233202
#	248298
#	268439
#	285138
#	296402
#	308097
#
# Disc length: 4349 seconds
#
# Revision: 1
# Processed by: cddbd v1.5.2PL0 Copyright (c) Steve Scherf et al.
# Submitted via: audiograbber 1.83.01
#
DISCID=3810fb16
DTITLE=Howard, Randy - Best Of, The
DYEAR=2008
DGENRE=Country
TTITLE0=All-American Redneck
TTITLE1=I Don't Know
TTITLE2=Atlanta's Burning Down
TTITLE3=Johnny Walker Home
TTITLE4=God Don't Live in Tennessee
TTITLE5=I Been to Georgia on a Fast Train
TTITLE6=My Nose Don't Work No More
TTITLE7=Julie, I'm Getting Married
TTITLE8=Down Here in Birmingham
TTITLE9=Dreamer and the Dream, The
TTITLE10=Killer on the Run
TTITLE11=Whiskey Talkin'
TTITLE12=Rose in Paradise
TTITLE13=Drivin' Her the Long Way Home
TTITLE14=Ring of Fire
TTITLE15=Love Sweet Love
TTITLE16=Southern Soul
TTITLE17=Month of Somedays, A
TTITLE18=Silver for Gold
TTITLE19=I'm Gonna Find a Woman
TTITLE20=Pair of Knees, A
TTITLE21=Aunt Carrie Jean
EXTD=
EXTT0=
EXTT1=
EXTT2=
EXTT3=
EXTT4=
EXTT5=
EXTT6=
EXTT7=
EXTT8=
EXTT9=
EXTT10=
EXTT11=
EXTT12=
EXTT13=
EXTT14=
EXTT15=
EXTT16=
EXTT17=
EXTT18=
EXTT19=
EXTT20=
EXTT21=
PLAYORDER=
